<svg width="97" height="97" viewBox="0 0 97 97" fill="none" xmlns="http://www.w3.org/2000/svg">
<g clip-path="url(#clip0_7016_90)">
<rect width="96.208" height="96.208" rx="20.7703" fill="#0B68F7"/>
<path d="M47.338 21.9767V21.9777H47.339L47.3399 21.9767L47.3409 21.9777C47.3429 21.9777 47.3448 21.9767 47.3468 21.9767L47.3458 21.9777C48.0663 21.9889 48.7638 22.2316 49.3351 22.671C49.9078 23.1116 50.3235 23.7252 50.5186 24.421L60.4835 59.8546L65.3839 46.7911L65.4825 46.5558C65.7324 46.0176 66.1213 45.5538 66.6114 45.214C67.1716 44.8256 67.837 44.6176 68.5186 44.6173H146.024C146.912 44.6173 147.764 44.9698 148.392 45.5978C149.02 46.2259 149.373 47.0786 149.373 47.9669C149.373 48.8551 149.02 49.7071 148.392 50.3351C147.764 50.9631 146.912 51.3155 146.024 51.3156H70.8399L63.1632 71.7814L63.1642 71.7823C62.9164 72.4434 62.4656 73.0097 61.877 73.3995C61.2886 73.7893 60.592 73.9838 59.8868 73.9542C59.1815 73.9245 58.503 73.6725 57.9493 73.2345C57.4648 72.8512 57.0973 72.3422 56.8849 71.7657L56.8028 71.5148L47.1251 37.0958L43.4132 48.965C43.2005 49.646 42.7759 50.2413 42.2013 50.6642C41.6983 51.0343 41.1034 51.2551 40.4845 51.3048L40.2179 51.3156H-31.787C-32.6752 51.3155 -33.5271 50.9631 -34.1552 50.3351C-34.7832 49.7071 -35.1365 48.8551 -35.1366 47.9669C-35.1366 47.0786 -34.7833 46.2259 -34.1552 45.5978C-33.5271 44.9698 -32.6752 44.6173 -31.787 44.6173H37.756L44.0948 24.3273L44.1856 24.0734C44.4209 23.4897 44.8164 22.9823 45.3292 22.6115C45.9115 22.1905 46.6139 21.969 47.3321 21.9777L47.3331 21.9767H47.338Z" fill="white" stroke="white" stroke-width="1.03851"/>
</g>
<defs>
<clipPath id="clip0_7016_90">
<rect width="96.208" height="96.208" rx="20.7703" fill="white"/>
</clipPath>
</defs>
</svg>
